name C:/MyDriveSym/Projects/mobilecap/Data\Session20210819_0001\mocap\ForceDataProcessed\DJ3_forces.mot
datacolumns 28
datarows 16
range 1.91950000 1.92700000
endheader 
time	R_ground_force_vx	R_ground_force_vy	R_ground_force_vz	R_ground_force_px	R_ground_force_py	R_ground_force_pz	R_ground_torque_x	R_ground_torque_y	R_ground_torque_z	L_ground_force_vx	L_ground_force_vy	L_ground_force_vz	L_ground_force_px	L_ground_force_py	L_ground_force_pz	L_ground_torque_x	L_ground_torque_y	L_ground_torque_z	3_ground_force_vx	3_ground_force_vy	3_ground_force_vz	3_ground_force_px	3_ground_force_py	3_ground_force_pz	3_ground_torque_x	3_ground_torque_y	3_ground_torque_z	
          1.91950000	        -10.86138900	        424.62044100	        -79.18297300	         -0.13653300	          0.00600000	         -0.39000700	          0.00000000	          0.39551000	          0.00000000	        -33.71764800	        511.69812900	         78.80848900	         -0.07765800	          0.00600000	         -0.74071200	          0.00000000	         -1.39712500	          0.00000000	          0.00000000	          0.00000000	          0.00000000	          0.00000000	          0.00000000	          0.00000000	          0.00000000	          0.00000000	          0.00000000	
          1.92000000	        -10.59628600	        425.90117800	        -79.28382900	         -0.13655900	          0.00600000	         -0.38998800	          0.00000000	          0.37360000	          0.00000000	        -33.64827600	        512.03109800	         78.83773600	         -0.07763100	          0.00600000	         -0.74071700	          0.00000000	         -1.39796000	          0.00000000	          0.00000000	          0.00000000	          0.00000000	          0.00000000	          0.00000000	          0.00000000	          0.00000000	          0.00000000	          0.00000000	
          1.92050000	        -10.33920900	        427.17844000	        -79.38076200	         -0.13658400	          0.00600000	         -0.38997000	          0.00000000	          0.35152600	          0.00000000	        -33.57783200	        512.36287700	         78.86761300	         -0.07760400	          0.00600000	         -0.74072200	          0.00000000	         -1.39867500	          0.00000000	          0.00000000	          0.00000000	          0.00000000	          0.00000000	          0.00000000	          0.00000000	          0.00000000	          0.00000000	          0.00000000	
          1.92100000	        -10.09037400	        428.45182700	        -79.47386200	         -0.13660800	          0.00600000	         -0.38995200	          0.00000000	          0.32931600	          0.00000000	        -33.50646100	        512.69320600	         78.89800300	         -0.07757700	          0.00600000	         -0.74072700	          0.00000000	         -1.39928300	          0.00000000	          0.00000000	          0.00000000	          0.00000000	          0.00000000	          0.00000000	          0.00000000	          0.00000000	          0.00000000	          0.00000000	
          1.92150000	         -9.84995600	        429.72095400	        -79.56324700	         -0.13663200	          0.00600000	         -0.38993400	          0.00000000	          0.30699800	          0.00000000	        -33.43433100	        513.02181800	         78.92878000	         -0.07755000	          0.00600000	         -0.74073300	          0.00000000	         -1.39979700	          0.00000000	          0.00000000	          0.00000000	          0.00000000	          0.00000000	          0.00000000	          0.00000000	          0.00000000	          0.00000000	          0.00000000	
          1.92200000	         -9.61808900	        430.98548200	        -79.64906400	         -0.13665400	          0.00600000	         -0.38991800	          0.00000000	          0.28459800	          0.00000000	        -33.36161600	        513.34844800	         78.95981800	         -0.07752400	          0.00600000	         -0.74073800	          0.00000000	         -1.40023400	          0.00000000	          0.00000000	          0.00000000	          0.00000000	          0.00000000	          0.00000000	          0.00000000	          0.00000000	          0.00000000	          0.00000000	
          1.92250000	         -9.39487200	        432.24512100	        -79.73148400	         -0.13667600	          0.00600000	         -0.38990200	          0.00000000	          0.26213900	          0.00000000	        -33.28849300	        513.67284700	         78.99099900	         -0.07749800	          0.00600000	         -0.74074400	          0.00000000	         -1.40060400	          0.00000000	          0.00000000	          0.00000000	          0.00000000	          0.00000000	          0.00000000	          0.00000000	          0.00000000	          0.00000000	          0.00000000	
          1.92300000	         -9.18036400	        433.49964300	        -79.81069800	         -0.13669700	          0.00600000	         -0.38988700	          0.00000000	          0.23963700	          0.00000000	        -33.21514300	        513.99479800	         79.02221300	         -0.07747300	          0.00600000	         -0.74074900	          0.00000000	         -1.40091800	          0.00000000	          0.00000000	          0.00000000	          0.00000000	          0.00000000	          0.00000000	          0.00000000	          0.00000000	          0.00000000	          0.00000000	
          1.92350000	         -8.97459600	        434.74886800	        -79.88690800	         -0.13671700	          0.00600000	         -0.38987200	          0.00000000	          0.21709900	          0.00000000	        -33.14175600	        514.31412700	         79.05335300	         -0.07744800	          0.00600000	         -0.74075500	          0.00000000	         -1.40117800	          0.00000000	          0.00000000	          0.00000000	          0.00000000	          0.00000000	          0.00000000	          0.00000000	          0.00000000	          0.00000000	          0.00000000	
          1.92400000	         -8.77757500	        435.99262400	        -79.96033600	         -0.13673600	          0.00600000	         -0.38985800	          0.00000000	          0.19453000	          0.00000000	        -33.06853200	        514.63068500	         79.08430800	         -0.07742300	          0.00600000	         -0.74076000	          0.00000000	         -1.40138700	          0.00000000	          0.00000000	          0.00000000	          0.00000000	          0.00000000	          0.00000000	          0.00000000	          0.00000000	          0.00000000	          0.00000000	
          1.92450000	         -8.58929400	        437.23072400	        -80.03121800	         -0.13675400	          0.00600000	         -0.38984400	          0.00000000	          0.17193400	          0.00000000	        -32.99567900	        514.94434300	         79.11495700	         -0.07739900	          0.00600000	         -0.74076600	          0.00000000	         -1.40154200	          0.00000000	          0.00000000	          0.00000000	          0.00000000	          0.00000000	          0.00000000	          0.00000000	          0.00000000	          0.00000000	          0.00000000	
          1.92500000	         -8.40973300	        438.46295000	        -80.09980000	         -0.13677100	          0.00600000	         -0.38983100	          0.00000000	          0.14931600	          0.00000000	        -32.92339800	        515.25498800	         79.14516900	         -0.07737600	          0.00600000	         -0.74077100	          0.00000000	         -1.40163400	          0.00000000	          0.00000000	          0.00000000	          0.00000000	          0.00000000	          0.00000000	          0.00000000	          0.00000000	          0.00000000	          0.00000000	
          1.92550000	         -8.23885800	        439.68904500	        -80.16633300	         -0.13678800	          0.00600000	         -0.38981800	          0.00000000	          0.12668600	          0.00000000	        -32.85188300	        515.56252600	         79.17481200	         -0.07735400	          0.00600000	         -0.74077700	          0.00000000	         -1.40164900	          0.00000000	          0.00000000	          0.00000000	          0.00000000	          0.00000000	          0.00000000	          0.00000000	          0.00000000	          0.00000000	          0.00000000	
          1.92600000	         -8.07661700	        440.90868600	        -80.23105900	         -0.13680300	          0.00600000	         -0.38980500	          0.00000000	          0.10405400	          0.00000000	        -32.78132600	        515.86687100	         79.20375100	         -0.07733200	          0.00600000	         -0.74078300	          0.00000000	         -1.40157100	          0.00000000	          0.00000000	          0.00000000	          0.00000000	          0.00000000	          0.00000000	          0.00000000	          0.00000000	          0.00000000	          0.00000000	
          1.92650000	         -7.92293800	        442.12146600	        -80.29420900	         -0.13681800	          0.00600000	         -0.38979300	          0.00000000	          0.08143400	          0.00000000	        -32.71192600	        516.16792800	         79.23185500	         -0.07731100	          0.00600000	         -0.74078900	          0.00000000	         -1.40139600	          0.00000000	          0.00000000	          0.00000000	          0.00000000	          0.00000000	          0.00000000	          0.00000000	          0.00000000	          0.00000000	          0.00000000	
          1.92700000	         -7.77774000	        443.32689000	        -80.35599100	         -0.13683200	          0.00600000	         -0.38978100	          0.00000000	          0.05884400	          0.00000000	        -32.64388700	        516.46557900	         79.25899500	         -0.07729100	          0.00600000	         -0.74079500	          0.00000000	         -1.40112500	          0.00000000	          0.00000000	          0.00000000	          0.00000000	          0.00000000	          0.00000000	          0.00000000	          0.00000000	          0.00000000	          0.00000000	
